PathFileType  4	(X/Y/Z) C:\Users\hpl\Documents\MyRepositories\mocap-processing\Data\treadmill\running\
DataRate	CameraRate	NumFrames	NumMarkers	Units	OrigDataRate	OrigDataStartFrame	OrigNumFrames
  200.0		  200.0		    6		     46		 mm	  200.0	      491	    785
Frame#	Time	r_knee			r_shank_antsup			r_ankle			r_calc			r_5meta			r_toe			L_knee			L_shank_antsup			L_ankle			L_calc			L_5meta			L_toe			r_sh2			r_sh3			r_sh4			L_sh2			L_sh3			r_thigh1			r_thigh2			r_thigh3			r_thigh4			r_thigh5			L_thigh1			L_thigh2			L_thigh3			L_thigh4			r.ASIS			r.PSIS			L.ASIS			L.PSIS			C7			R_Shoulder			L_Shoulder			Sternum			R_humerus			R_elbow_med			R_elbow_lat			R_forearm			R_wrist_radius			R_wrist_ulna			L_humerus			L_elbow_med			L_elbow_lat			L_forearm			L_wrist_radius			L_wrist_ulna			
		X1	Y1	Z1	X2	Y2	Z2	X3	Y3	Z3	X4	Y4	Z4	X5	Y5	Z5	X6	Y6	Z6	X7	Y7	Z7	X8	Y8	Z8	X9	Y9	Z9	X10	Y10	Z10	X11	Y11	Z11	X12	Y12	Z12	X13	Y13	Z13	X14	Y14	Z14	X15	Y15	Z15	X16	Y16	Z16	X17	Y17	Z17	X18	Y18	Z18	X19	Y19	Z19	X20	Y20	Z20	X21	Y21	Z21	X22	Y22	Z22	X23	Y23	Z23	X24	Y24	Z24	X25	Y25	Z25	X26	Y26	Z26	X27	Y27	Z27	X28	Y28	Z28	X29	Y29	Z29	X30	Y30	Z30	X31	Y31	Z31	X32	Y32	Z32	X33	Y33	Z33	X34	Y34	Z34	X35	Y35	Z35	X36	Y36	Z36	X37	Y37	Z37	X38	Y38	Z38	X39	Y39	Z39	X40	Y40	Z40	X41	Y41	Z41	X42	Y42	Z42	X43	Y43	Z43	X44	Y44	Z44	X45	Y45	Z45	X46	Y46	Z46	

491	2.45000	1009.786	132.789	563.888	1054.583	131.028	455.771	1103.285	201.744	126.024	1047.513	284.428	102.507	1227.003	175.788	51.900	1270.894	212.082	106.006	655.449	419.930	525.067	540.992	415.190	477.612	231.543	395.035	498.174	228.330	364.352	572.849	120.331	355.969	376.489	143.211	281.018	361.061	1079.382	150.311	340.669	982.265	127.813	438.334	999.036	162.972	328.534	540.445	448.623	560.169	419.050	430.379	551.494	984.366	103.192	790.920	1028.187	128.481	687.767	1005.959	106.505	638.517	890.902	69.759	739.928	937.715	111.214	640.454	831.475	422.675	694.245	766.911	404.229	568.243	730.111	465.935	740.141	671.679	431.623	617.515	886.803	137.502	1013.328	690.602	230.679	1067.971	907.083	398.123	1009.329	695.890	336.323	1068.982	810.374	287.290	1553.879	786.533	100.113	1526.616	902.726	446.868	1526.753	953.300	237.026	1454.478	640.390	47.495	1366.520	520.689	146.524	1303.605	504.877	65.584	1339.087	613.037	22.383	1204.183	679.181	11.713	1106.954	631.148	-0.794	1087.548	869.904	567.433	1302.600	733.393	551.794	1198.890	793.908	620.469	1238.661	922.979	528.009	1189.749	984.253	430.222	1203.592	989.475	460.463	1138.138
492	2.45500	1007.308	132.560	560.709	1050.482	131.337	450.484	1091.910	203.233	120.432	1035.576	285.591	98.203	1214.185	177.755	43.621	1259.344	214.592	96.739	664.628	421.606	519.760	550.660	415.504	473.011	241.009	395.465	510.005	239.874	362.885	584.207	126.856	359.053	390.310	149.523	284.205	372.997	1072.608	151.239	334.840	977.836	128.356	434.673	991.962	164.137	324.847	551.720	448.926	559.236	430.304	429.692	554.318	984.704	100.044	789.602	1026.960	129.134	685.595	1004.960	108.143	636.448	890.237	70.999	737.998	936.707	111.479	638.152	836.831	423.154	690.940	778.153	406.257	564.675	734.779	466.756	734.786	679.016	432.994	610.475	886.878	137.465	1010.927	690.719	230.465	1064.714	906.890	398.140	1006.634	695.659	336.126	1065.756	810.753	286.430	1550.786	787.847	99.030	1523.049	903.133	446.411	1523.886	953.903	236.998	1451.241	643.074	45.900	1360.950	523.625	144.543	1296.588	507.589	63.579	1332.016	617.448	20.675	1198.019	684.800	10.681	1101.596	637.091	-1.936	1081.653	868.397	567.421	1299.644	731.272	550.820	1196.761	791.675	619.679	1236.168	920.892	528.566	1184.856	983.396	431.223	1197.475	987.120	461.749	1132.104
493	2.46000	1004.837	132.233	557.026	1046.591	131.410	445.145	1079.413	204.590	114.676	1022.216	282.387	94.474	1199.863	179.790	34.695	1245.998	217.191	86.720	674.073	422.487	513.152	560.878	416.491	468.063	251.354	395.999	521.661	251.993	361.029	594.910	134.875	362.368	402.862	157.087	289.144	384.962	1065.611	151.777	329.037	973.468	128.923	431.375	984.780	164.426	321.195	563.256	449.369	558.594	441.747	429.926	558.189	985.281	99.054	787.384	1026.274	129.744	683.260	1003.939	109.472	634.060	889.698	72.181	736.089	935.746	111.647	635.744	842.401	423.756	687.503	786.637	407.439	559.661	738.889	468.063	729.040	686.540	434.455	603.293	886.945	137.408	1008.261	690.549	230.392	1061.566	906.825	398.193	1003.645	695.605	336.074	1062.522	810.953	285.497	1547.279	789.269	98.094	1519.007	903.259	446.379	1520.934	954.678	237.152	1447.633	645.700	44.137	1355.155	526.397	142.382	1289.396	510.816	61.026	1324.404	622.220	18.861	1191.551	690.663	9.340	1095.903	643.264	-3.136	1075.405	866.562	567.283	1296.423	729.041	549.975	1194.661	789.352	618.991	1233.567	918.657	529.215	1179.673	982.511	432.338	1191.027	984.663	463.208	1125.597
494	2.46500	1002.380	131.846	552.889	1042.418	131.381	439.677	1065.817	205.125	108.798	1007.118	286.558	89.265	1184.882	181.950	26.118	1231.673	220.508	76.193	683.957	424.225	506.911	567.513	423.371	471.422	262.708	395.934	532.243	264.840	359.076	604.533	143.987	366.444	415.443	165.403	292.214	393.493	1058.418	152.393	323.122	969.157	129.059	427.910	977.271	164.408	317.490	575.226	449.314	557.915	453.606	429.733	561.215	985.875	99.812	784.069	1025.929	130.105	680.567	1003.036	110.419	631.321	889.303	73.835	734.024	934.959	111.872	633.096	848.209	424.492	683.971	796.002	409.126	554.550	744.512	468.823	723.010	694.744	435.696	596.092	886.982	137.230	1005.363	690.645	230.310	1057.958	906.531	398.478	1000.393	695.344	336.078	1058.919	811.088	284.622	1543.538	790.216	96.772	1515.057	903.183	445.193	1517.673	955.307	237.255	1443.916	648.525	42.242	1348.896	529.510	139.707	1281.532	513.816	58.416	1316.420	627.044	16.782	1184.711	696.947	8.117	1089.998	649.731	-4.669	1069.049	864.304	566.992	1292.887	726.575	548.916	1192.255	786.718	618.236	1230.760	916.021	529.967	1174.152	980.825	433.656	1183.999	981.993	464.841	1118.853
495	2.47000	1000.269	131.397	548.674	1038.415	131.498	433.920	1051.672	206.853	103.014	990.276	287.751	86.469	1164.513	182.111	26.450	1216.197	225.362	67.061	693.904	426.268	501.047	577.188	424.907	470.274	274.691	397.033	542.793	278.346	357.201	613.228	154.640	370.215	425.619	174.871	296.455	402.007	1050.670	152.574	316.776	964.779	128.226	424.249	969.575	163.799	313.765	587.744	449.266	557.050	466.451	429.279	563.789	986.838	97.830	781.772	1025.821	130.221	677.238	1002.216	111.055	628.103	888.910	75.549	731.651	934.662	112.267	630.677	853.955	425.447	680.385	804.706	409.814	550.324	749.364	470.157	717.163	702.567	436.836	588.947	887.175	137.124	1002.377	690.695	230.182	1054.029	906.164	398.793	996.714	695.027	336.005	1054.833	811.211	283.503	1539.451	791.714	95.746	1510.442	901.569	446.476	1513.683	955.864	237.526	1439.999	651.481	40.288	1342.318	532.830	136.868	1273.581	517.306	55.445	1308.237	632.134	14.631	1177.624	703.376	6.442	1083.941	656.609	-6.243	1062.270	861.730	566.570	1289.196	723.851	547.780	1189.464	783.831	617.337	1227.769	913.077	530.825	1168.276	979.655	435.100	1176.683	979.055	466.681	1111.744
496	2.47500	998.339	130.809	544.423	1033.937	131.508	427.733	1035.247	209.561	99.640	971.924	288.143	85.591	1144.413	182.378	28.006	1196.955	232.576	60.137	704.356	428.516	495.432	587.851	426.437	468.590	287.904	396.980	551.103	292.289	355.631	620.874	166.162	374.248	434.778	185.203	301.021	409.449	1042.594	152.906	310.421	959.915	127.259	420.036	961.126	163.454	309.470	600.437	449.217	555.699	479.670	428.888	565.568	987.850	97.167	777.999	1026.274	129.040	673.433	1001.373	111.301	624.550	888.443	76.546	728.638	934.118	111.695	626.967	859.924	426.292	676.434	813.624	411.407	545.519	754.555	472.953	711.337	711.099	438.752	581.521	887.346	137.059	999.146	690.588	230.200	1050.176	905.603	399.256	992.840	694.636	335.924	1050.808	811.088	282.668	1535.306	793.109	94.572	1505.828	901.161	446.384	1510.240	956.589	237.784	1435.855	654.666	38.253	1335.451	535.985	133.795	1265.218	521.206	52.154	1299.491	637.726	12.208	1170.326	710.289	5.032	1077.653	663.915	-7.985	1055.322	858.917	565.946	1285.208	720.993	546.757	1186.839	780.838	616.495	1224.698	909.953	531.793	1162.315	977.662	436.578	1168.895	975.986	468.711	1104.364
